<?xml version="1.0" encoding="UTF-8"?>
<svg id="svg40" width="447.64" height="433.89" version="1.1" viewBox="0 0 118.48 114.84" xmlns="http://www.w3.org/2000/svg" xmlns:cc="http://creativecommons.org/ns#" xmlns:dc="http://purl.org/dc/elements/1.1/" xmlns:rdf="http://www.w3.org/1999/02/22-rdf-syntax-ns#">
 <metadata id="metadata46">
  <rdf:RDF>
   <cc:Work rdf:about="">
    <dc:format>image/svg+xml</dc:format>
    <dc:type rdf:resource="http://purl.org/dc/dcmitype/StillImage"/>
    <dc:title>Libera Chat logo</dc:title>
   </cc:Work>
  </rdf:RDF>
 </metadata>
 <title id="title2">Libera Chat logo</title>
 <g id="g38" transform="translate(-32.984 117.86)">
  <g id="g26" stroke-width=".1451">
   <path id="path4" d="m34.03-3.342q-0.4346 0-0.731-0.2963-0.2766-0.2963-0.2766-0.731v-13.37q0-0.4346 0.2963-0.731t0.7112-0.2963q0.4346 0 0.731 0.2963t0.2963 0.731v12.35h7.152q0.4346 0 0.731 0.2963t0.2963 0.731-0.2963 0.731-0.731 0.2963z"/>
   <path id="path6" d="m46.73-3.342q-0.4346 0-0.731-0.2766-0.2766-0.2963-0.2766-0.731v-8.791q0-0.4544 0.2766-0.731 0.2963-0.2766 0.731-0.2766 0.4544 0 0.731 0.2766t0.2766 0.731v8.791q0 0.4346-0.2766 0.731-0.2766 0.2766-0.731 0.2766zm0-12.56q-0.5334 0-0.9285-0.3754-0.3754-0.3951-0.3754-0.9285t0.3754-0.9088q0.3951-0.3951 0.9285-0.3951t0.9088 0.3951q0.3951 0.3754 0.3951 0.9088t-0.3951 0.9285q-0.3754 0.3754-0.9088 0.3754z"/>
   <path id="path8" d="m56.94-3.263q-1.541 0-2.766-0.7112-1.225-0.731-1.936-1.976-0.7112-1.245-0.731-2.805v-9.009q0-0.4544 0.2766-0.731 0.2963-0.2766 0.731-0.2766 0.4544 0 0.731 0.2766t0.2766 0.731v5.334q0.6914-0.8297 1.659-1.304 0.9878-0.4939 2.153-0.4939 1.442 0 2.588 0.731 1.146 0.7112 1.798 1.956 0.6717 1.225 0.6717 2.786t-0.731 2.805q-0.7112 1.245-1.936 1.976-1.225 0.7112-2.786 0.7112zm0-1.778q1.008 0 1.798-0.4741 0.7902-0.4939 1.245-1.343 0.4741-0.8495 0.4741-1.897 0-1.067-0.4741-1.897-0.4544-0.8297-1.245-1.304-0.7902-0.4939-1.798-0.4939-0.9878 0-1.798 0.4939-0.7902 0.4741-1.245 1.304-0.4544 0.8297-0.4544 1.897 0 1.047 0.4544 1.897t1.245 1.343q0.81 0.4741 1.798 0.4741z"/>
   <path id="path10" d="m70.47-3.263q-1.64 0-2.924-0.6914-1.264-0.7112-1.995-1.936-0.7112-1.245-0.7112-2.845 0-1.62 0.6717-2.845 0.6914-1.245 1.897-1.936 1.205-0.7112 2.766-0.7112 1.541 0 2.647 0.6914 1.106 0.6717 1.679 1.877 0.5927 1.185 0.5927 2.746 0 0.3754-0.2568 0.6322-0.2568 0.2371-0.6519 0.2371h-7.962v-1.58h7.902l-0.81 0.5532q-0.01976-0.9878-0.3951-1.758-0.3754-0.7902-1.067-1.245t-1.679-0.4544q-1.126 0-1.936 0.4939-0.7902 0.4939-1.205 1.363-0.4149 0.8495-0.4149 1.936 0 1.087 0.4939 1.936t1.363 1.343q0.8692 0.4939 1.995 0.4939 0.6124 0 1.245-0.2173 0.6519-0.2371 1.047-0.5334 0.2963-0.2173 0.6322-0.2173 0.3556-0.01976 0.6124 0.1976 0.3358 0.2963 0.3556 0.6519 0.01976 0.3556-0.3161 0.6124-0.6717 0.5334-1.679 0.8692-0.9878 0.3358-1.897 0.3358z"/>
   <path id="path12" d="m78.63-10.1q0-1.185 0.5729-2.114 0.5927-0.9483 1.58-1.501t2.173-0.5532 1.758 0.3951q0.5927 0.3754 0.4544 0.9088-0.05927 0.2766-0.2371 0.4346-0.158 0.1383-0.3754 0.1778-0.2173 0.03951-0.4741-0.01976-1.264-0.2568-2.272-0.03951-1.008 0.2173-1.6 0.81-0.5729 0.5927-0.5729 1.501zm0.01976 6.756q-0.4741 0-0.731-0.2371-0.2568-0.2568-0.2568-0.7507v-8.831q0-0.4741 0.2568-0.731t0.731-0.2568q0.4939 0 0.731 0.2568 0.2568 0.2371 0.2568 0.731v8.831q0 0.4741-0.2568 0.731-0.2371 0.2568-0.731 0.2568z"/>
   <path id="path14" d="m91.01-3.263q-1.442 0-2.588-0.7112-1.146-0.731-1.818-1.956-0.6519-1.245-0.6519-2.805 0-1.561 0.7112-2.805 0.731-1.245 1.956-1.956 1.245-0.731 2.786-0.731t2.766 0.731q1.225 0.7112 1.936 1.956 0.731 1.245 0.731 2.805h-0.7705q0 1.561-0.6717 2.805-0.6519 1.225-1.798 1.956-1.146 0.7112-2.588 0.7112zm0.3951-1.778q1.008 0 1.798-0.4741 0.7902-0.4939 1.245-1.324 0.4544-0.8495 0.4544-1.897 0-1.067-0.4544-1.897-0.4544-0.8495-1.245-1.324-0.7902-0.4939-1.798-0.4939-0.9878 0-1.798 0.4939-0.7902 0.4741-1.264 1.324-0.4544 0.8297-0.4544 1.897 0 1.047 0.4544 1.897 0.4741 0.8297 1.264 1.324 0.81 0.4741 1.798 0.4741zm4.425 1.719q-0.4346 0-0.731-0.2766-0.2766-0.2963-0.2766-0.731v-3.023l0.3754-2.094 1.64 0.7112v4.405q0 0.4346-0.2963 0.731-0.2766 0.2766-0.7112 0.2766z"/>
   <path id="path16" d="m100.4-3.026q-0.5532 0-0.968-0.3951-0.3951-0.4149-0.3951-0.968 0-0.5729 0.3951-0.968 0.4149-0.4149 0.968-0.4149 0.5729 0 0.968 0.4149 0.3951 0.3951 0.3951 0.968 0 0.5532-0.3951 0.968-0.3951 0.3951-0.968 0.3951z"/>
   <path id="path18" d="m110.9-3.144q-1.6 0-3.003-0.5927-1.383-0.6124-2.43-1.679-1.027-1.087-1.62-2.529-0.5729-1.442-0.5729-3.121 0-1.659 0.5729-3.082 0.5927-1.442 1.62-2.509 1.047-1.087 2.43-1.699 1.383-0.6124 3.003-0.6124 1.521 0 2.608 0.3951 1.106 0.3951 2.213 1.304 0.158 0.1185 0.2371 0.2568 0.0988 0.1185 0.1185 0.2568 0.0395 0.1185 0.0395 0.2963 0 0.3754-0.2766 0.6322-0.2568 0.2371-0.6322 0.2766-0.3754 0.01976-0.731-0.2568-0.731-0.6322-1.521-0.968-0.7705-0.3358-2.055-0.3358-1.166 0-2.193 0.4741t-1.818 1.304q-0.7705 0.8297-1.205 1.936-0.4346 1.087-0.4346 2.331 0 1.264 0.4346 2.371 0.4346 1.087 1.205 1.916 0.7902 0.8297 1.818 1.304 1.027 0.4544 2.193 0.4544 1.008 0 1.897-0.3358 0.9088-0.3556 1.738-0.968 0.3556-0.2568 0.6914-0.2173 0.3556 0.01976 0.5927 0.2766 0.2371 0.2371 0.2371 0.6717 0 0.1976-0.079 0.3951-0.079 0.1778-0.2371 0.3358-1.067 0.8495-2.292 1.284-1.205 0.4346-2.548 0.4346z"/>
   <path id="path20" d="m128.3-3.322q-0.4346 0-0.731-0.2766-0.2766-0.2963-0.2766-0.731v-4.86q0-1.126-0.4149-1.837-0.4149-0.7112-1.126-1.047-0.6914-0.3556-1.6-0.3556-0.8297 0-1.501 0.3358-0.6717 0.3358-1.067 0.9088-0.3951 0.5532-0.3951 1.284h-1.245q0-1.245 0.5927-2.213 0.6124-0.9878 1.659-1.561 1.047-0.5729 2.351-0.5729 1.363 0 2.43 0.5927 1.087 0.5729 1.699 1.699 0.6322 1.126 0.6322 2.766v4.86q0 0.4346-0.2963 0.731-0.2766 0.2766-0.7112 0.2766zm-8.12 0q-0.4346 0-0.731-0.2766-0.2766-0.2963-0.2766-0.731v-8.811q0-0.4544 0.2766-0.731 0.2963-0.2766 0.731-0.2766 0.4544 0 0.731 0.2766t0.2766 0.731v8.811q0 0.4346-0.2766 0.731-0.2766 0.2766-0.731 0.2766zm0-3.951q-0.4346 0-0.731-0.2766-0.2766-0.2963-0.2766-0.731v-9.483q0-0.4544 0.2766-0.731 0.2963-0.2766 0.731-0.2766 0.4544 0 0.731 0.2766t0.2766 0.731v9.483q0 0.4346-0.2766 0.731-0.2766 0.2766-0.731 0.2766z"/>
   <path id="path22" d="m137.1-3.263q-1.442 0-2.588-0.7112-1.146-0.731-1.818-1.956-0.6519-1.245-0.6519-2.805 0-1.561 0.7112-2.805 0.731-1.245 1.956-1.956 1.245-0.731 2.786-0.731t2.766 0.731q1.225 0.7112 1.936 1.956 0.731 1.245 0.731 2.805h-0.7705q0 1.561-0.6717 2.805-0.6519 1.225-1.798 1.956-1.146 0.7112-2.588 0.7112zm0.3951-1.778q1.008 0 1.798-0.4741 0.7902-0.4939 1.245-1.324 0.4544-0.8495 0.4544-1.897 0-1.067-0.4544-1.897-0.4544-0.8495-1.245-1.324-0.7902-0.4939-1.798-0.4939-0.9878 0-1.798 0.4939-0.7902 0.4741-1.264 1.324-0.4544 0.8297-0.4544 1.897 0 1.047 0.4544 1.897 0.4741 0.8297 1.264 1.324 0.81 0.4741 1.798 0.4741zm4.425 1.719q-0.4346 0-0.731-0.2766-0.2766-0.2963-0.2766-0.731v-3.023l0.3754-2.094 1.64 0.7112v4.405q0 0.4346-0.2963 0.731-0.2766 0.2766-0.7112 0.2766z"/>
   <path id="path24" d="m149.9-3.342q-0.9878 0-1.778-0.4939-0.7902-0.5136-1.245-1.383t-0.4544-1.956v-9.423q0-0.4346 0.2766-0.7112t0.7112-0.2766 0.7112 0.2766 0.2766 0.7112v9.423q0 0.7902 0.4346 1.324 0.4346 0.5334 1.067 0.5334h0.6717q0.3556 0 0.5927 0.2766 0.2568 0.2766 0.2568 0.7112t-0.3358 0.7112q-0.3161 0.2766-0.8297 0.2766zm-4.386-8.712q-0.4149 0-0.6717-0.2371t-0.2568-0.5927q0-0.3951 0.2568-0.6322t0.6717-0.2371h4.564q0.4149 0 0.6717 0.2371t0.2568 0.6322q0 0.3556-0.2568 0.5927t-0.6717 0.2371z"/>
  </g>
  <path id="path28" d="m80.75-117.8-0.01857 3e-3c-0.1092 0.0214-0.2183 0.0433-0.3274 0.0653-0.109 0.0219-0.218 0.0444-0.3269 0.0669-0.109 0.0226-0.218 0.0457-0.3269 0.0689-0.1088 0.0231-0.2176 0.0468-0.3263 0.0705-0.1087 0.0236-0.2173 0.0478-0.3258 0.072-0.1085 0.0243-0.2169 0.0492-0.3253 0.0741-0.1085 0.025-0.2169 0.0506-0.3252 0.0762-0.1083 0.0255-0.2165 0.0515-0.3247 0.0777-0.1081 0.0262-0.2162 0.0529-0.3242 0.0798-0.108 0.0267-0.2158 0.0539-0.3236 0.0813s-0.2155 0.0553-0.3231 0.0834c-0.1076 0.0279-0.2151 0.0563-0.3226 0.0849-0.1076 0.0285-0.2151 0.0573-0.3225 0.0864-0.1072 0.0293-0.2144 0.0591-0.3215 0.089-0.1072 0.0297-0.2144 0.0597-0.3215 0.09-0.1071 0.0305-0.214 0.0611-0.3209 0.0921-0.1067 0.031-0.2133 0.0625-0.3199 0.0941-0.1067 0.0317-0.2133 0.0635-0.3198 0.0957-0.1064 0.0321-0.2126 0.0645-0.3188 0.0972-0.1064 0.0328-0.2126 0.0659-0.3188 0.0993-0.106 0.0333-0.2119 0.0669-0.3177 0.1008-0.106 0.034-0.2119 0.0683-0.3177 0.103-0.1056 0.0346-0.2112 0.0694-0.3166 0.1045-0.1055 0.0353-0.2108 0.0708-0.3161 0.1066-0.1053 0.0357-0.2105 0.0718-0.3156 0.1081-0.1051 0.0362-0.2101 0.0728-0.315 0.1097-0.1049 0.037-0.2098 0.0742-0.3145 0.1117-0.1046 0.0375-0.2091 0.0752-0.3135 0.1133-0.1046 0.0382-0.2091 0.0766-0.3134 0.1153-0.1042 0.0387-0.2084 0.0777-0.3124 0.1169-0.1039 0.0392-0.2077 0.0787-0.3113 0.1184-0.1039 0.0399-0.2076 0.0801-0.3113 0.1205-0.1035 0.0405-0.207 0.081-0.3103 0.122-0.1034 0.041-0.2066 0.082-0.3097 0.1236-0.06401 0.0259-0.128 0.0521-0.1919 0.0783 5.681 18.81 11.36 37.63 17.04 56.44l2.621-3.067zm22.65-0.0629-6.202 47.55 5.02-5.874 0.9969 1.598 11.13-40.09c-0.0911-0.0364-0.1823-0.0723-0.2736-0.1082-0.1034-0.0405-0.2068-0.0808-0.3104-0.1207-0.1037-0.04-0.2075-0.0797-0.3114-0.1191-0.104-0.0395-0.2082-0.0787-0.3124-0.1176-0.104-0.0388-0.2082-0.0773-0.3124-0.1155-0.1044-0.0383-0.2089-0.0762-0.3134-0.1139-0.1047-0.0378-0.2095-0.0752-0.3144-0.1124-0.1047-0.037-0.2095-0.0738-0.3144-0.1103-0.105-0.0365-0.2102-0.0728-0.3154-0.1087-0.1052-0.0358-0.2105-0.0714-0.3159-0.1066-0.1054-0.0354-0.2108-0.0703-0.3164-0.1051-0.1057-0.0348-0.2115-0.0693-0.3174-0.1035-0.1057-0.0341-0.2115-0.0679-0.3174-0.1015-0.106-0.0337-0.2122-0.0669-0.3184-0.0999-0.1062-0.0329-0.2125-0.0655-0.3189-0.0978s-0.2129-0.0645-0.3194-0.0962c-0.1066-0.0318-0.2132-0.0635-0.3199-0.0947-0.1067-0.0311-0.2135-0.0621-0.3204-0.0926-0.1069-0.0306-0.2139-0.0611-0.3209-0.0911-0.1072-0.0299-0.2145-0.0597-0.3219-0.089-0.1072-0.0294-0.2145-0.0587-0.3219-0.0875-0.1074-0.0287-0.2149-0.0573-0.3224-0.0854-0.1076-0.0282-0.2152-0.0562-0.3229-0.0838-0.1079-0.0275-0.2159-0.0549-0.3239-0.0817-0.1079-0.027-0.2159-0.0538-0.3239-0.0801-0.1081-0.0265-0.2162-0.0528-0.3244-0.0786-0.1082-0.0256-0.2165-0.0511-0.3249-0.076-0.1082-0.0253-0.2165-0.0502-0.3249-0.0749-0.1086-0.0246-0.2172-0.049-0.3259-0.0729s-0.2175-0.0475-0.3264-0.0708c-0.1087-0.0234-0.2175-0.0466-0.3264-0.0693-0.1089-0.0229-0.2178-0.0454-0.3269-0.0677-0.1091-0.0222-0.2182-0.044-0.3274-0.0656-0.109-0.0215-0.2182-0.0427-0.3273-0.0636zm-53.41 16.47c-0.06436 0.0646-0.1286 0.1293-0.1926 0.1942-0.07771 0.079-0.1552 0.1582-0.2325 0.2376-0.07719 0.0792-0.1542 0.1585-0.2309 0.2381-0.07684 0.0798-0.1535 0.1599-0.2299 0.2402-0.07632 0.0802-0.1524 0.1606-0.2283 0.2412-0.07581 0.0805-0.1514 0.1612-0.2267 0.2422-0.07545 0.08108-0.1507 0.1623-0.2257 0.2437-0.07494 0.08137-0.1496 0.163-0.2241 0.2447-0.07459 0.08189-0.1489 0.164-0.2231 0.2463-0.0739 0.08223-0.1476 0.1647-0.221 0.2473-0.07355 0.08257-0.1469 0.1653-0.2199 0.2483-0.07303 0.08308-0.1458 0.1664-0.2184 0.2499-0.07268 0.08343-0.1451 0.1671-0.2173 0.2509-0.07216 0.08394-0.1441 0.1681-0.2158 0.2524-0.07163 0.08428-0.143 0.1688-0.2142 0.2534-0.07112 0.08462-0.142 0.1694-0.2126 0.2544-0.07076 0.08513-0.1413 0.1705-0.2116 0.256-0.07008 0.08547-0.1399 0.1711-0.2095 0.257-0.06974 0.08581-0.1392 0.1718-0.2085 0.258-0.06921 0.08615-0.1382 0.1725-0.2069 0.259-0.06869 0.08666-0.1371 0.1735-0.2053 0.2606-0.06834 0.08701-0.1364 0.1742-0.2043 0.2616-0.06765 0.08734-0.1351 0.1749-0.2022 0.2626-0.0673 0.0877-0.1344 0.1756-0.2012 0.2636-0.06661 0.08821-0.133 0.1766-0.1991 0.2652-0.06626 0.08854-0.1323 0.1773-0.198 0.2662-0.06574 0.08889-0.1312 0.178-0.1965 0.2672-0.06523 0.08922-0.1302 0.1786-0.1949 0.2682-0.0647 0.08957-0.1292 0.1793-0.1933 0.2692-0.06418 0.08991-0.1281 0.18-0.1918 0.2703-0.06366 0.09025-0.1271 0.1807-0.1902 0.2713-0.06314 0.09076-0.126 0.1817-0.1887 0.2728-0.06263 0.09093-0.125 0.182-0.1871 0.2733-0.0621 0.09144-0.1239 0.1831-0.1855 0.2748-0.06159 0.09161-0.1229 0.1834-0.184 0.2753l-0.01121 0.0172 32.53 35.55 2.462-3.203 0.1137 0.04892zm83.83-0.6565-24.06 37.95 2.738 4.389 29.12-32.98c-0.0534-0.07991-0.107-0.1597-0.1608-0.2394-0.0619-0.09142-0.1241-0.1827-0.1866-0.2737-0.0624-0.09124-0.1251-0.1823-0.1881-0.2732-0.0629-0.09072-0.1262-0.1813-0.1896-0.2716-0.0634-0.09037-0.1272-0.1806-0.1912-0.2706-0.064-0.09019-0.1282-0.1802-0.1927-0.27-0.0645-0.08968-0.1292-0.1792-0.1942-0.2685-0.065-0.08932-0.1303-0.1785-0.1958-0.2674-0.0655-0.08897-0.1313-0.1778-0.1973-0.2664-0.066-0.08863-0.1323-0.1771-0.1989-0.2653-0.0666-0.08827-0.1334-0.1764-0.2004-0.2643-0.0671-0.08776-0.1344-0.1753-0.2019-0.2627-0.0676-0.08758-0.1354-0.175-0.2035-0.2622-0.0679-0.08706-0.1361-0.1739-0.2045-0.2606-0.0686-0.0867-0.1375-0.1732-0.2066-0.2595-0.069-0.08636-0.1381-0.1725-0.2076-0.2585s-0.1392-0.1718-0.2091-0.2574c-0.0702-0.08565-0.1405-0.1711-0.2112-0.2564-0.0705-0.08513-0.1412-0.1701-0.2122-0.2548-0.0709-0.08478-0.1419-0.1694-0.2132-0.2538-0.0715-0.08444-0.1433-0.1687-0.2152-0.2527-0.0721-0.08391-0.1443-0.1676-0.2168-0.2511-0.0724-0.08357-0.145-0.1669-0.2178-0.2501-0.0729-0.08322-0.146-0.1662-0.2194-0.249-0.0734-0.0827-0.147-0.1652-0.2209-0.2475-0.0737-0.08252-0.1477-0.1648-0.2219-0.2469-0.0742-0.08182-0.1487-0.1634-0.2234-0.2449-0.0747-0.08165-0.1498-0.1631-0.225-0.2443-0.0753-0.08114-0.1508-0.162-0.2265-0.2428-0.0758-0.0806-0.1518-0.161-0.228-0.2412-0.0761-0.0802-0.1525-0.1603-0.2291-0.2401-0.0765-0.0798-0.1532-0.1596-0.2301-0.2391-0.0771-0.0793-0.1545-0.1586-0.2321-0.2375-0.0775-0.079-0.1552-0.1578-0.2332-0.2365-0.078-0.0785-0.1562-0.1568-0.2347-0.2349-0.0784-0.0781-0.1569-0.1561-0.2357-0.2338-0.0736-0.0725-0.1475-0.1448-0.2216-0.2169zm-99.75 30.57c-0.02113 0.107-0.04196 0.214-0.06248 0.3211-0.02062 0.1082-0.04093 0.2164-0.06094 0.3247-0.01992 0.1083-0.03954 0.2167-0.05883 0.3252-0.01942 0.1083-0.03852 0.2167-0.05733 0.3251-0.01872 0.1085-0.03712 0.217-0.05523 0.3256-0.01821 0.1087-0.03613 0.2174-0.05372 0.3261-0.01751 0.1087-0.03473 0.2174-0.05162 0.3261-0.01681 0.1088-0.03332 0.2177-0.04951 0.3266-0.01631 0.109-0.03232 0.218-0.04801 0.3271-0.01561 0.109-0.03092 0.218-0.04591 0.3271-0.01511 0.109-0.02992 0.218-0.04441 0.3271-0.01441 0.1091-0.02852 0.2183-0.0423 0.3276-0.01371 0.1093-0.02711 0.2187-0.0402 0.3281-0.01321 0.1093-0.02611 0.2187-0.0387 0.328-0.01251 0.1093-0.02471 0.2186-0.0366 0.328-0.0118 0.1095-0.02331 0.219-0.03449 0.3285-0.0113 0.1095-0.02231 0.219-0.03299 0.3285-0.01077 0.1096-0.02124 0.2193-0.03139 0.329-0.0099 0.1096-0.01958 0.2193-0.02889 0.329-0.0094 0.1096-0.0185 0.2193-0.02729 0.3289-0.0089 0.1098-0.0175 0.2196-0.02578 0.3294-0.0081 0.1098-0.01577 0.2196-0.02318 0.3294-0.0077 0.1098-0.01503 0.2196-0.02208 0.3294-0.0068 0.1099-0.0133 0.2199-0.01948 0.3299-0.0063 0.1099-0.0123 0.2199-0.01798 0.3299-0.0056 0.1099-0.0109 0.2199-0.01588 0.3299-0.0051 0.1099-0.0099 0.2199-0.01438 0.3298-0.0044 0.1099-0.0085 0.2199-0.01228 0.3298-0.0037 0.1101-0.0071 0.2202-0.01017 0.3303-0.0032 0.1099-0.0061 0.2198-0.0087 0.3298-0.0025 0.1101-0.0047 0.2202-0.0066 0.3303-0.0018 0.1101-0.0031 0.2202-0.0043 0.3302-0.0014 0.1101-0.0025 0.2202-0.0033 0.3302-7.57e-4 0.1101-0.0011 0.2201-0.0013 0.3302 6.6e-5 0.07917 2.89e-4 0.1584 6.83e-4 0.2375l34.66 13.04 2.699-3.512zm116.5 1.015-33.02 18.86 2.591 4.152 31.3-11.4 4e-3 -0.1698c3e-3 -0.1099 5e-3 -0.2198 7e-3 -0.3297 2e-3 -0.1101 4e-3 -0.2202 4e-3 -0.3302 2e-3 -0.1101 3e-3 -0.2202 3e-3 -0.3302 7.6e-4 -0.1101 2e-3 -0.2201 1e-3 -0.3302l-7.3e-4 -0.3302c-5.9e-4 -0.1102-2e-3 -0.2205-3e-3 -0.3307-8.3e-4 -0.07003-2e-3 -0.1401-3e-3 -0.2101-2e-3 -0.11-3e-3 -0.2201-6e-3 -0.3301-2e-3 -0.11-4e-3 -0.2201-8e-3 -0.3301l-0.01-0.3301c-3e-3 -0.11-7e-3 -0.22-0.0117-0.3301l-0.0127-0.33c-5e-3 -0.1098-0.0105-0.2197-0.0156-0.3295-5e-3 -0.11-0.0115-0.22-0.0171-0.33l-0.0187-0.3295c-7e-3 -0.11-0.0139-0.22-0.0213-0.3299-7e-3 -0.1098-0.0146-0.2196-0.0223-0.3294-8e-3 -0.1098-0.0163-0.2196-0.0249-0.3294-8e-3 -0.1096-0.0173-0.2193-0.0264-0.3289-9e-3 -0.1098-0.0187-0.2196-0.0285-0.3293-9e-3 -0.1096-0.0198-0.2192-0.0301-0.3288-0.0102-0.1095-0.0214-0.2189-0.0326-0.3283-0.0112-0.1096-0.0222-0.2192-0.0337-0.3288-0.0117-0.1094-0.0239-0.2188-0.0363-0.3282-0.0122-0.1094-0.0249-0.2188-0.0378-0.3282-0.0128-0.1093-0.026-0.2185-0.0394-0.3277-0.0134-0.1093-0.0273-0.2185-0.0414-0.3276-0.0142-0.1092-0.0287-0.2185-0.0435-0.3276-0.0149-0.1091-0.0301-0.2181-0.0456-0.3271-0.0154-0.1091-0.0311-0.2181-0.0471-0.3271-0.0159-0.1089-0.0322-0.2177-0.0487-0.3265-0.0167-0.1089-0.0339-0.2177-0.0512-0.3265-0.0171-0.1087-0.0346-0.2174-0.0523-0.326-0.018-0.1087-0.0362-0.2173-0.0549-0.3259-0.0185-0.1085-0.0373-0.217-0.0564-0.3254l-0.01-0.05371zm-112.8 33.2c0.03833 0.0885 0.07688 0.1769 0.1157 0.2652 0.04443 0.1011 0.08916 0.202 0.1342 0.3028 0.04478 0.1007 0.08985 0.2013 0.1352 0.3017 0.04547 0.1004 0.09121 0.2006 0.1372 0.3007 0.04598 0.1004 0.09224 0.2006 0.1388 0.3007 0.04666 0.09983 0.09362 0.1995 0.1408 0.2991 0.04718 0.09982 0.09465 0.1995 0.1424 0.2991 0.04769 0.0993 0.09567 0.1985 0.1439 0.2975 0.04838 0.09912 0.09704 0.1981 0.146 0.297 0.04889 0.09894 0.09807 0.1978 0.1475 0.2964 0.04941 0.0986 0.0991 0.1971 0.1491 0.2954 0.04992 0.09842 0.1001 0.1967 0.1506 0.2948 0.05061 0.09807 0.1015 0.196 0.1527 0.2938 0.05113 0.09772 0.1025 0.1953 0.1542 0.2927 0.05165 0.09754 0.1036 0.1949 0.1558 0.2922 0.05215 0.0972 0.1046 0.1942 0.1573 0.2911 0.05285 0.09685 0.106 0.1935 0.1594 0.2901 0.05335 0.09666 0.107 0.1932 0.1609 0.2896 0.05387 0.09632 0.108 0.1925 0.1624 0.2885 0.05438 0.09597 0.109 0.1918 0.164 0.2874 0.05507 0.09562 0.1104 0.1911 0.166 0.2864 0.05541 0.09544 0.1111 0.1907 0.167 0.2859 0.0561 0.09509 0.1125 0.19 0.1691 0.2848 0.05661 0.09475 0.1135 0.1893 0.1706 0.2837 0.05713 0.09456 0.1145 0.189 0.1722 0.2832 0.05764 0.09404 0.1155 0.1879 0.1737 0.2816 0.05832 0.09386 0.1169 0.1876 0.1758 0.2811 0.05867 0.09351 0.1176 0.1869 0.1768 0.2801 0.05936 0.09316 0.119 0.1862 0.1789 0.279 0.05969 0.09281 0.1197 0.1855 0.1799 0.278 0.06038 0.09246 0.121 0.1848 0.1819 0.2769 0.0609 0.09212 0.1221 0.1841 0.1835 0.2758 0.06141 0.09176 0.1231 0.1834 0.185 0.2748 0.06193 0.09141 0.1241 0.1827 0.1866 0.2737 0.06243 0.09124 0.1251 0.1823 0.1881 0.2732 0.06295 0.09071 0.1262 0.1813 0.1896 0.2716 0.06347 0.09037 0.1272 0.1806 0.1912 0.2706l0.01412 0.01947 10.18-2.258 0.2022-0.2657-0.2418 0.0017 6.319-8.223zm88.93 0.3146 4.904 8.144 9.146 2.064c0.0227-0.03199 0.0455-0.06399 0.0682-0.09602 0.0637-0.09041 0.1271-0.181 0.1902-0.2718 0.0632-0.09059 0.126-0.1814 0.1887-0.2723 0.0628-0.09092 0.1253-0.182 0.1876-0.2733 0.0621-0.09145 0.1239-0.1831 0.1855-0.2748 0.0616-0.09178 0.1229-0.1837 0.184-0.2759 0.0611-0.09196 0.1219-0.1841 0.1824-0.2764 0.0606-0.09246 0.1208-0.1851 0.1808-0.2779 0.0601-0.09262 0.1198-0.1854 0.1793-0.2784 0.0596-0.09314 0.1187-0.1865 0.1777-0.2799 0.0589-0.09331 0.1177-0.1868 0.1762-0.2804 0.0583-0.09364 0.1163-0.1875 0.1741-0.2814 0.0579-0.09417 0.1156-0.1885 0.173-0.283 0.0574-0.09433 0.1146-0.1888 0.1715-0.2835 0.0567-0.09467 0.1132-0.1895 0.1694-0.2845 0.0564-0.09502 0.1125-0.1902 0.1684-0.2855 0.0557-0.09519 0.1111-0.1905 0.1663-0.286 0.0552-0.0957 0.1101-0.1915 0.1647-0.2875 0.0546-0.09586 0.109-0.1919 0.1632-0.288 0.0541-0.09621 0.108-0.1926 0.1616-0.2891 0.0534-0.09654 0.1066-0.1932 0.1595-0.2901 0.0531-0.09689 0.1059-0.1939 0.1585-0.2911 0.0524-0.09705 0.1046-0.1942 0.1564-0.2916 0.0519-0.09739 0.1035-0.1949 0.1548-0.2926 0.0514-0.09774 0.1025-0.1956 0.1533-0.2936 0.0507-0.0979 0.1011-0.1959 0.1512-0.2941 0.0503-0.09824 0.1004-0.1966 0.1502-0.2951 0.0496-0.09858 0.099-0.1973 0.1481-0.2962 0.049-0.09875 0.0976-0.1976 0.146-0.2967 0.0486-0.09909 0.097-0.1983 0.145-0.2977 0.0479-0.09943 0.0956-0.199 0.1429-0.2987 0.0474-0.09959 0.0944-0.1993 0.1413-0.2992 0.0469-0.09994 0.0934-0.2 0.1398-0.3002 0.0464-0.1001 0.0924-0.2003 0.1382-0.3007 0.0457-0.1003 0.091-0.2007 0.1361-0.3012l2e-3 -0.0031z" fill="#55f" style="paint-order:markers fill stroke"/>
  <g id="g36" transform="translate(.5292)" fill="#f5d">
   <path id="path30" d="m102.4-77.66-17.25 19.7-7.897-3.488-25.66 32.99 2.235 0.0024s15.98-20.43 24-30.71l7.819 3.455 16.48-18.83c9.127 15.53 18.97 30.48 27.93 46.1l2.227-0.01328z" color="#000000"/>
   <path id="path32" d="m102.1-71.77-16.02 18.37-7.826-3.25-22.13 28.18 2.445 0.01543 20.28-25.94 7.76 3.22 15.22-17.45 23.94 40.24 2.37-0.04577z" color="#000000"/>
   <path id="path34" d="m60.94-28.49 18.48-23.56 7.918 3.219 14.38-16.52 21.59 36.89z" stroke-width="0"/>
  </g>
 </g>
</svg>
